<svg xmlns="http://www.w3.org/2000/svg" xmlns:xlink="http://www.w3.org/1999/xlink" style="" xml:space="preserve" width="32" height="32"><rect id="backgroundrect" width="100%" height="100%" x="0" y="0" fill="none" stroke="none"/> <style type="text/css"> .st0{fill:#0054FF;} .st1{fill:#FFFFFF;} </style>   <g class="currentLayer" style=""><title>Layer 1</title><path fill="#1aebeb" fill-opacity="1" stroke="none" stroke-opacity="1" stroke-width="1" stroke-dasharray="none" stroke-linejoin="miter" stroke-linecap="butt" stroke-dashoffset="" fill-rule="nonzero" opacity="1" marker-start="" marker-mid="" marker-end="" d="M-0.03846144676208496,16.02884700726277 C-0.03846144676208496,7.226254121175784 7.121759601060859,0.09615388344532516 15.961538672447205,0.09615388344532516 C24.80131774383355,0.09615388344532516 31.961538791656494,7.226254121175784 31.961538791656494,16.02884700726277 C31.961538791656494,24.831439893349753 24.80131774383355,31.961540131080213 15.961538672447205,31.961540131080213 C7.121759601060859,31.961540131080213 -0.03846144676208496,24.831439893349753 -0.03846144676208496,16.02884700726277 z" id="svg_10" class="selected"/><polygon class="st1" points="23.38461685180664,8.134616076946259 13.584617614746094,17.934615790843964 9.38461685180664,13.6346156001091 6.784618377685547,16.134616553783417 11.084617614746094,20.434615790843964 13.584617614746094,22.934615790843964 16.184616088867188,20.434615790843964 25.984615325927734,10.6346156001091 " id="svg_2"/><path fill="#7bd3cc" fill-opacity="1" stroke="none" stroke-opacity="1" stroke-width="1" stroke-dasharray="none" stroke-linejoin="miter" stroke-linecap="butt" stroke-dashoffset="" fill-rule="nonzero" opacity="1" marker-start="" marker-mid="" marker-end="" d="M27,11 C27,11 27,11 27,11 C27,11 27,11 27,11 C27,11 27,11 27,11 C27,11 27,11 27,11 Z" id="svg_8"/></g></svg>